<?xml version="1.0" standalone="no"?>
<!DOCTYPE svg PUBLIC "-//W3C//DTD SVG 20010904//EN"
 "http://www.w3.org/TR/2001/REC-SVG-20010904/DTD/svg10.dtd">
<svg version="1.0" xmlns="http://www.w3.org/2000/svg"
 width="103.000000pt" height="103.000000pt" viewBox="0 0 103.000000 103.000000"
 preserveAspectRatio="xMidYMid meet">
<metadata>
Created by potrace 1.14, written by Peter Selinger 2001-2017
</metadata>
<g transform="translate(0.000000,103.000000) scale(0.100000,-0.100000)"
fill="#000000" stroke="none">
<path d="M0 515 l0 -515 25 0 25 0 0 515 0 515 -25 0 -25 0 0 -515z"/>
<path d="M620 515 c0 -337 3 -515 10 -515 7 0 10 178 10 515 0 337 -3 515 -10
515 -7 0 -10 -178 -10 -515z"/>
<path d="M1015 515 c0 -286 1 -402 2 -257 2 145 2 379 0 520 -1 141 -2 23 -2
-263z"/>
<path d="M260 510 c0 -333 3 -510 10 -510 7 0 10 177 10 510 0 333 -3 510 -10
510 -7 0 -10 -177 -10 -510z"/>
</g>
</svg>
