<svg width="1024" height="1024" viewBox="0 0 1024 1024" fill="none" xmlns="http://www.w3.org/2000/svg">
<path d="M511.91 400.953C450.765 400.953 400.865 450.853 400.865 512C400.865 573.147 450.765 623.047 511.91 623.047C573.056 623.047 622.956 573.147 622.956 512C622.956 450.853 573.056 400.953 511.91 400.953ZM844.963 512C844.963 466.015 845.379 420.446 842.797 374.545C840.214 321.229 828.052 273.911 789.065 234.923C749.995 195.853 702.762 183.773 649.447 181.191C603.462 178.608 557.895 179.025 511.994 179.025C466.01 179.025 420.442 178.608 374.541 181.191C321.226 183.773 273.909 195.936 234.922 234.923C195.852 273.994 183.773 321.229 181.191 374.545C178.608 420.53 179.025 466.098 179.025 512C179.025 557.902 178.608 603.554 181.191 649.455C183.773 702.771 195.936 750.089 234.922 789.077C273.992 828.147 321.226 840.227 374.541 842.809C420.525 845.392 466.093 844.975 511.994 844.975C557.978 844.975 603.546 845.392 649.447 842.809C702.762 840.227 750.079 828.064 789.065 789.077C828.135 750.006 840.214 702.771 842.797 649.455C845.463 603.554 844.963 557.985 844.963 512ZM511.91 682.861C417.36 682.861 341.052 606.553 341.052 512C341.052 417.447 417.36 341.139 511.91 341.139C606.461 341.139 682.768 417.447 682.768 512C682.768 606.553 606.461 682.861 511.91 682.861ZM689.766 374.045C667.69 374.045 649.863 356.217 649.863 334.141C649.863 312.065 667.69 294.237 689.766 294.237C711.842 294.237 729.669 312.065 729.669 334.141C729.676 339.383 728.648 344.575 726.645 349.419C724.642 354.264 721.703 358.665 717.996 362.372C714.29 366.079 709.888 369.018 705.044 371.021C700.2 373.024 695.008 374.051 689.766 374.045Z" fill="#4E4E4E"/>
</svg>
