<svg width="463" height="463" viewBox="0 0 463 463" fill="none" xmlns="http://www.w3.org/2000/svg">
<path d="M367.468 120.716L298.474 51.7225C297.372 50.6194 295.876 50 294.316 50H112.424C102.265 50 94 58.2651 94 68.4244V394.576C94 404.735 102.265 413 112.424 413H350.766C360.925 413 369.19 404.735 369.19 394.576V124.874C369.19 123.314 368.571 121.818 367.468 120.716ZM300.197 70.0755L349.115 118.994H306.861C303.186 118.994 300.197 116.004 300.197 112.329V70.0755V70.0755ZM350.766 401.24H112.424C108.75 401.24 105.76 398.25 105.76 394.576V68.4244C105.76 64.7497 108.75 61.7603 112.424 61.7603H288.436V112.329C288.436 122.489 296.701 130.754 306.861 130.754H357.43V394.576C357.43 398.25 354.44 401.24 350.766 401.24Z" fill="black"/>
<path d="M156.329 213.076H143.785C137.084 213.076 131.633 218.527 131.633 225.228V237.772C131.633 244.473 137.084 249.924 143.785 249.924H156.329C163.03 249.924 168.482 244.473 168.482 237.772V225.228C168.482 218.527 163.03 213.076 156.329 213.076ZM156.721 237.772C156.721 237.989 156.546 238.164 156.329 238.164H143.785C143.569 238.164 143.393 237.989 143.393 237.772V225.228C143.393 225.011 143.569 224.836 143.785 224.836H156.329C156.546 224.836 156.721 225.011 156.721 225.228V237.772Z" fill="black"/>
<path d="M187.69 224.836H244.139C247.387 224.836 250.019 222.203 250.019 218.956C250.019 215.708 247.387 213.076 244.139 213.076H187.69C184.443 213.076 181.81 215.708 181.81 218.956C181.81 222.203 184.443 224.836 187.69 224.836Z" fill="black"/>
<path d="M187.69 249.924H269.228C272.475 249.924 275.108 247.292 275.108 244.044C275.108 240.797 272.475 238.164 269.228 238.164H187.69C184.443 238.164 181.81 240.797 181.81 244.044C181.81 247.292 184.443 249.924 187.69 249.924Z" fill="black"/>
<path d="M156.329 156.626H143.785C137.084 156.626 131.633 162.078 131.633 168.779V181.323C131.633 188.024 137.084 193.475 143.785 193.475H156.329C163.03 193.475 168.482 188.024 168.482 181.323V168.779C168.482 162.078 163.03 156.626 156.329 156.626ZM156.721 181.323C156.721 181.539 156.546 181.715 156.329 181.715H143.785C143.569 181.715 143.393 181.539 143.393 181.323V168.779C143.393 168.562 143.569 168.387 143.785 168.387H156.329C156.546 168.387 156.721 168.562 156.721 168.779V181.323Z" fill="black"/>
<path d="M187.69 168.387H269.228C272.475 168.387 275.108 165.754 275.108 162.506C275.108 159.259 272.475 156.626 269.228 156.626H187.69C184.443 156.626 181.81 159.259 181.81 162.506C181.81 165.754 184.443 168.387 187.69 168.387Z" fill="black"/>
<path d="M325.677 181.715H187.69C184.443 181.715 181.81 184.348 181.81 187.595C181.81 190.842 184.443 193.475 187.69 193.475H325.677C328.925 193.475 331.557 190.842 331.557 187.595C331.557 184.348 328.925 181.715 325.677 181.715Z" fill="black"/>
<path d="M156.329 100.177H143.785C137.084 100.177 131.633 105.628 131.633 112.329V124.874C131.633 131.575 137.084 137.026 143.785 137.026H156.329C163.03 137.026 168.482 131.575 168.482 124.874V112.329C168.482 105.628 163.03 100.177 156.329 100.177ZM156.721 124.874C156.721 125.09 156.546 125.266 156.329 125.266H143.785C143.569 125.266 143.393 125.09 143.393 124.874V112.329C143.393 112.113 143.569 111.937 143.785 111.937H156.329C156.546 111.937 156.721 112.113 156.721 112.329V124.874Z" fill="black"/>
<path d="M187.69 111.937H244.139C247.387 111.937 250.019 109.305 250.019 106.057C250.019 102.81 247.387 100.177 244.139 100.177H187.69C184.443 100.177 181.81 102.81 181.81 106.057C181.81 109.305 184.443 111.937 187.69 111.937Z" fill="black"/>
<path d="M187.69 137.026H269.228C272.475 137.026 275.108 134.393 275.108 131.146C275.108 127.898 272.475 125.266 269.228 125.266H187.69C184.443 125.266 181.81 127.898 181.81 131.146C181.81 134.393 184.443 137.026 187.69 137.026Z" fill="black"/>
<path d="M156.329 325.974H143.785C137.084 325.974 131.633 331.425 131.633 338.126V350.671C131.633 357.372 137.084 362.823 143.785 362.823H156.329C163.03 362.823 168.482 357.372 168.482 350.671V338.126C168.482 331.425 163.03 325.974 156.329 325.974ZM156.721 350.671C156.721 350.887 156.546 351.063 156.329 351.063H143.785C143.569 351.063 143.393 350.887 143.393 350.671V338.126C143.393 337.91 143.569 337.734 143.785 337.734H156.329C156.546 337.734 156.721 337.91 156.721 338.126V350.671Z" fill="black"/>
<path d="M187.69 337.734H244.139C247.387 337.734 250.019 335.102 250.019 331.854C250.019 328.607 247.387 325.974 244.139 325.974H187.69C184.443 325.974 181.81 328.607 181.81 331.854C181.81 335.102 184.443 337.734 187.69 337.734Z" fill="black"/>
<path d="M269.228 351.063H187.69C184.443 351.063 181.81 353.695 181.81 356.943C181.81 360.19 184.443 362.823 187.69 362.823H269.228C272.475 362.823 275.108 360.19 275.108 356.943C275.108 353.695 272.475 351.063 269.228 351.063Z" fill="black"/>
<path d="M156.329 269.525H143.785C137.084 269.525 131.633 274.976 131.633 281.677V294.221C131.633 300.922 137.084 306.374 143.785 306.374H156.329C163.03 306.374 168.482 300.922 168.482 294.221V281.677C168.482 274.976 163.03 269.525 156.329 269.525ZM156.721 294.221C156.721 294.438 156.546 294.613 156.329 294.613H143.785C143.569 294.613 143.393 294.438 143.393 294.221V281.677C143.393 281.461 143.569 281.285 143.785 281.285H156.329C156.546 281.285 156.721 281.461 156.721 281.677V294.221Z" fill="black"/>
<path d="M187.69 281.285H269.228C272.475 281.285 275.108 278.652 275.108 275.405C275.108 272.158 272.475 269.525 269.228 269.525H187.69C184.443 269.525 181.81 272.158 181.81 275.405C181.81 278.652 184.443 281.285 187.69 281.285Z" fill="black"/>
<path d="M325.677 294.613H187.69C184.443 294.613 181.81 297.246 181.81 300.494C181.81 303.741 184.443 306.374 187.69 306.374H325.677C328.925 306.374 331.557 303.741 331.557 300.494C331.557 297.246 328.925 294.613 325.677 294.613Z" fill="black"/>
</svg>
