<svg width="586" height="586" viewBox="0 0 586 586" fill="none" xmlns="http://www.w3.org/2000/svg">
<path d="M454.366 237.652C458.432 237.652 461.73 234.357 461.73 230.289V159.607C461.73 155.54 458.433 152.244 454.366 152.244H422.461V128.193C422.461 124.126 419.164 120.83 415.098 120.83H325.833L327.839 114.814C328.587 112.568 328.211 110.099 326.827 108.179C325.443 106.259 323.22 105.121 320.854 105.121H296.802V91.1538L311.272 69.4484C314.477 64.6385 310.906 58 305.146 58H242.316C236.556 58 232.985 64.6385 236.19 69.4465L250.66 91.1529V105.121H226.608C224.241 105.121 222.018 106.259 220.635 108.179C219.251 110.099 218.875 112.568 219.623 114.814L221.628 120.83H132.363C128.297 120.83 125 124.125 125 128.193V481.61C125 485.677 128.296 488.973 132.363 488.973H156.415V520.879C156.415 524.946 159.712 528.242 163.778 528.242H454.365C458.431 528.242 461.729 524.947 461.729 520.879V261.707C461.729 257.64 458.432 254.344 454.365 254.344C450.3 254.344 447.002 257.639 447.002 261.707V513.516H171.142V488.973H210.901C214.967 488.973 218.264 485.678 218.264 481.61C218.264 477.543 214.968 474.247 210.901 474.247H139.726V135.556H226.536L235.329 161.936C236.331 164.943 239.146 166.97 242.314 166.97H305.144C308.312 166.97 311.126 164.943 312.128 161.936L320.923 135.556H407.734V474.247H242.316C238.25 474.247 234.953 477.542 234.953 481.61C234.953 485.677 238.249 488.973 242.316 488.973H415.098C419.163 488.973 422.461 485.678 422.461 481.61V166.971H447.003V230.291C447.003 234.357 450.3 237.652 454.366 237.652ZM250.66 152.245H247.623L236.824 119.848H250.66V152.245ZM282.075 152.245H265.386V119.848H282.075V152.245ZM283.312 84.8405C282.505 86.0492 282.074 87.4718 282.074 88.9248V105.123H265.385V88.9239C265.385 87.4709 264.956 86.0482 264.148 84.8396L256.072 72.7254H291.387L283.312 84.8405ZM299.838 152.245H296.801V119.848H310.637L299.838 152.245Z" fill="black"/>
<path d="M389.674 178.889C387.31 175.579 382.711 174.812 379.403 177.178L359.63 191.301V183.169C359.63 179.102 356.334 175.806 352.267 175.806H289.438C285.372 175.806 282.074 179.101 282.074 183.169V245.998C282.074 250.065 285.371 253.361 289.438 253.361H352.267C356.333 253.361 359.63 250.066 359.63 245.998V209.396L387.961 189.159C391.271 186.797 392.037 182.198 389.674 178.889ZM344.905 201.819L329.503 212.821L318.206 201.524C315.33 198.649 310.668 198.649 307.793 201.524C304.918 204.4 304.918 209.061 307.793 211.937L323.501 227.644C326.013 230.156 330.094 230.494 332.987 228.428L344.904 219.915V238.636H296.8V190.532H344.904V201.819H344.905Z" fill="black"/>
<path d="M242.316 191.514H171.633C167.567 191.514 164.27 194.809 164.27 198.877C164.27 202.944 167.566 206.24 171.633 206.24H242.316C246.382 206.24 249.679 202.945 249.679 198.877C249.678 194.809 246.382 191.514 242.316 191.514Z" fill="black"/>
<path d="M210.901 222.928H171.632C167.566 222.928 164.269 226.223 164.269 230.291C164.269 234.359 167.565 237.654 171.632 237.654H210.901C214.967 237.654 218.264 234.359 218.264 230.291C218.264 226.223 214.967 222.928 210.901 222.928Z" fill="black"/>
<path d="M352.268 277.904H289.438C285.372 277.904 282.075 281.199 282.075 285.267V348.097C282.075 352.163 285.372 355.46 289.438 355.46H352.268C356.334 355.46 359.631 352.164 359.631 348.097V285.267C359.63 281.199 356.334 277.904 352.268 277.904ZM344.905 340.734H296.801V292.629H344.905V340.734Z" fill="black"/>
<path d="M242.316 293.611H171.633C167.567 293.611 164.27 296.906 164.27 300.974C164.27 305.041 167.566 308.337 171.633 308.337H242.316C246.382 308.337 249.679 305.042 249.679 300.974C249.678 296.907 246.382 293.611 242.316 293.611Z" fill="black"/>
<path d="M218.754 325.026H171.632C167.566 325.026 164.269 328.322 164.269 332.389C164.269 336.456 167.565 339.753 171.632 339.753H218.754C222.82 339.753 226.117 336.457 226.117 332.389C226.117 328.322 222.82 325.026 218.754 325.026Z" fill="black"/>
<path d="M352.268 380.002H289.438C285.372 380.002 282.075 383.298 282.075 387.365V450.195C282.075 454.262 285.372 457.558 289.438 457.558H352.268C356.334 457.558 359.631 454.263 359.631 450.195V387.365C359.63 383.298 356.334 380.002 352.268 380.002ZM344.905 442.832H296.801V394.728H344.905V442.832Z" fill="black"/>
<path d="M242.316 395.709H171.633C167.567 395.709 164.27 399.005 164.27 403.073C164.27 407.139 167.566 410.436 171.633 410.436H242.316C246.382 410.436 249.679 407.14 249.679 403.073C249.678 399.006 246.382 395.709 242.316 395.709Z" fill="black"/>
<path d="M210.901 427.125H171.632C167.566 427.125 164.269 430.42 164.269 434.488C164.269 438.555 167.565 441.851 171.632 441.851H210.901C214.967 441.851 218.264 438.556 218.264 434.488C218.264 430.42 214.967 427.125 210.901 427.125Z" fill="black"/>
</svg>
