<svg width="449" height="449" viewBox="0 0 449 449" fill="none" xmlns="http://www.w3.org/2000/svg">
<path d="M157.569 227.519C156.252 226.202 154.27 225.807 152.549 226.521C150.828 227.233 149.706 228.913 149.706 230.776V312.517C149.706 315.061 151.768 317.122 154.312 317.122H236.052C237.915 317.122 239.594 316 240.308 314.279C241.021 312.558 240.626 310.577 239.31 309.26L157.569 227.519ZM158.918 307.911V241.895L224.933 307.911H158.918Z" fill="black"/>
<path d="M390.013 64.3738L366.065 40.4258C364.266 38.627 361.35 38.6279 359.551 40.4258L221.147 178.83C220.704 179.273 220.357 179.801 220.125 180.382L204.954 218.475L143.907 157.428L154.862 146.473C156.661 144.674 156.661 141.758 154.862 139.96C153.063 138.161 150.147 138.161 148.349 139.96L137.393 150.914L119.017 132.537V40.6059C119.017 38.0618 116.955 36 114.411 36H61.6059C59.0618 36 57 38.0618 57 40.6059V407.394C57 409.938 59.0618 412 61.6059 412H114.411C116.955 412 119.017 409.938 119.017 407.394V357.023H330.476L343.339 369.886C344.238 370.786 345.416 371.235 346.595 371.235C347.775 371.235 348.953 370.786 349.852 369.886C351.651 368.088 351.651 365.172 349.852 363.373L211.963 225.484L250.056 210.313C250.638 210.081 251.166 209.734 251.609 209.291L390.013 70.8874C390.876 70.024 391.362 68.8524 391.362 67.6306C391.362 66.4088 390.876 65.2372 390.013 64.3738ZM109.804 402.788H66.2117V394.592H74.123C76.6671 394.592 78.7288 392.531 78.7288 389.986C78.7288 387.442 76.6671 385.381 74.123 385.381H66.2117V370.88H74.123C76.6671 370.88 78.7288 368.818 78.7288 366.274C78.7288 363.73 76.6671 361.668 74.123 361.668H66.2117V347.168H74.123C76.6671 347.168 78.7288 345.106 78.7288 342.562C78.7288 340.018 76.6671 337.956 74.123 337.956H66.2117V323.455H74.123C76.6671 323.455 78.7288 321.393 78.7288 318.849C78.7288 316.305 76.6671 314.243 74.123 314.243H66.2117V299.743H74.123C76.6671 299.743 78.7288 297.681 78.7288 295.137C78.7288 292.593 76.6671 290.531 74.123 290.531H66.2117V276.03H74.123C76.6671 276.03 78.7288 273.969 78.7288 271.425C78.7288 268.88 76.6671 266.819 74.123 266.819H66.2117V252.319H74.123C76.6671 252.319 78.7288 250.257 78.7288 247.713C78.7288 245.169 76.6671 243.107 74.123 243.107H66.2117V228.606H74.123C76.6671 228.606 78.7288 226.544 78.7288 224C78.7288 221.456 76.6671 219.394 74.123 219.394H66.2117V204.894H74.123C76.6671 204.894 78.7288 202.832 78.7288 200.288C78.7288 197.744 76.6671 195.682 74.123 195.682H66.2117V181.181H74.123C76.6671 181.181 78.7288 179.12 78.7288 176.575C78.7288 174.031 76.6671 171.97 74.123 171.97H66.2117V157.469H74.123C76.6671 157.469 78.7288 155.408 78.7288 152.864C78.7288 150.319 76.6671 148.258 74.123 148.258H66.2117V133.757H74.123C76.6671 133.757 78.7288 131.695 78.7288 129.151C78.7288 126.607 76.6671 124.545 74.123 124.545H66.2117V110.044H74.123C76.6671 110.044 78.7288 107.982 78.7288 105.438C78.7288 102.894 76.6671 100.832 74.123 100.832H66.2117V86.3321H74.123C76.6671 86.3321 78.7288 84.2704 78.7288 81.7263C78.7288 79.1821 76.6671 77.1204 74.123 77.1204H66.2117V62.6194H74.123C76.6671 62.6194 78.7288 60.5577 78.7288 58.0136C78.7288 55.4694 76.6671 53.4077 74.123 53.4077H66.2117V45.2117H109.805V402.788H109.804ZM119.016 347.812V145.564L141.431 167.978L128.326 181.083C126.527 182.882 126.527 185.798 128.326 187.597C129.225 188.496 130.403 188.946 131.582 188.946C132.762 188.946 133.94 188.496 134.839 187.597L147.944 174.492L158.198 184.745L145.093 197.85C143.294 199.649 143.294 202.565 145.093 204.364C145.992 205.263 147.17 205.713 148.35 205.713C149.529 205.713 150.707 205.263 151.606 204.364L164.711 191.259L174.965 201.512L161.86 214.617C160.061 216.416 160.061 219.332 161.86 221.131C162.759 222.03 163.937 222.48 165.117 222.48C166.296 222.48 167.474 222.03 168.373 221.131L181.478 208.026L191.732 218.279L178.627 231.384C176.828 233.183 176.828 236.099 178.627 237.898C179.526 238.797 180.705 239.247 181.884 239.247C183.063 239.247 184.241 238.797 185.14 237.898L198.245 224.793L208.499 235.047L195.394 248.152C193.595 249.95 193.595 252.866 195.394 254.665C196.293 255.564 197.472 256.014 198.651 256.014C199.83 256.014 201.008 255.564 201.907 254.665L215.012 241.56L225.266 251.814L212.161 264.919C210.362 266.717 210.362 269.633 212.161 271.432C213.06 272.331 214.239 272.781 215.418 272.781C216.597 272.781 217.775 272.331 218.674 271.432L231.779 258.327L242.033 268.581L228.928 281.686C227.129 283.484 227.129 286.4 228.928 288.199C229.827 289.099 231.006 289.548 232.185 289.548C233.364 289.548 234.542 289.099 235.442 288.199L248.547 275.094L258.8 285.348L245.695 298.453C243.896 300.251 243.896 303.167 245.695 304.966C246.594 305.866 247.773 306.315 248.952 306.315C250.13 306.315 251.309 305.866 252.209 304.966L265.314 291.861L275.567 302.115L262.462 315.22C260.663 317.019 260.663 319.934 262.462 321.733C263.362 322.633 264.54 323.082 265.719 323.082C266.898 323.082 268.076 322.633 268.976 321.733L282.081 308.628L292.334 318.882L279.229 331.987C277.43 333.786 277.43 336.702 279.229 338.5C280.129 339.4 281.307 339.849 282.486 339.849C283.665 339.849 284.843 339.4 285.743 338.5L298.848 325.395L321.262 347.81H119.016V347.812ZM242.892 194.06L357.418 79.5339L362.879 84.9939L248.352 199.52L242.892 194.06ZM236.379 187.547L230.919 182.087L345.445 67.5603L350.905 73.0203L236.379 187.547ZM226.095 190.291L240.148 204.344L216.794 213.645L226.095 190.291ZM369.393 78.4804L351.959 61.0467L362.809 50.197L380.243 67.6306L369.393 78.4804Z" fill="black"/>
<path d="M361.103 374.624C359.304 372.825 356.388 372.825 354.59 374.624C352.791 376.423 352.791 379.339 354.59 381.137L368.801 395.349C369.7 396.248 370.878 396.698 372.058 396.698C373.236 396.698 374.415 396.248 375.314 395.349C377.113 393.55 377.113 390.634 375.314 388.835L361.103 374.624Z" fill="black"/>
<path d="M386.564 400.085C384.766 398.287 381.85 398.288 380.051 400.088C378.253 401.887 378.254 404.803 380.053 406.601L380.343 406.89C381.243 407.789 382.42 408.238 383.599 408.238C384.778 408.238 385.957 407.788 386.857 406.888C388.655 405.089 388.655 402.173 386.855 400.375L386.564 400.085Z" fill="black"/>
<path d="M239.244 60.1833C240.423 60.1833 241.602 59.7336 242.501 58.8334L243.236 58.099C245.034 56.3002 245.034 53.3834 243.235 51.5854C241.436 49.7866 238.519 49.7875 236.721 51.5863L235.987 52.3215C234.189 54.1203 234.189 57.0363 235.988 58.8351C236.887 59.7336 238.065 60.1833 239.244 60.1833Z" fill="black"/>
<path d="M213.781 85.6454C214.959 85.6454 216.138 85.1957 217.037 84.2963L231.249 70.0851C233.048 68.2863 233.048 65.3704 231.249 63.5716C229.451 61.7736 226.535 61.7728 224.736 63.5716L210.524 77.7828C208.725 79.5816 208.725 82.4975 210.524 84.2963C211.423 85.1957 212.602 85.6454 213.781 85.6454Z" fill="black"/>
<path d="M188.319 111.108C189.497 111.108 190.676 110.659 191.575 109.759L205.787 95.5481C207.586 93.7493 207.586 90.8333 205.787 89.0345C203.989 87.2357 201.073 87.2357 199.274 89.0345L185.061 103.246C183.262 105.045 183.262 107.96 185.061 109.759C185.961 110.659 187.139 111.108 188.319 111.108Z" fill="black"/>
<path d="M162.856 136.57C164.035 136.57 165.213 136.121 166.112 135.221L180.323 121.01C182.122 119.211 182.122 116.295 180.323 114.497C178.525 112.698 175.608 112.699 173.81 114.497L159.599 128.709C157.8 130.507 157.8 133.423 159.599 135.222C160.498 136.122 161.677 136.57 162.856 136.57Z" fill="black"/>
</svg>
