<svg width="58" height="58" viewBox="0 0 58 58" fill="none" xmlns="http://www.w3.org/2000/svg">
<path d="M45.8947 31.739C45.0286 30.8729 43.6202 30.8744 42.7542 31.739L31.3029 43.1903L29.7248 48.9781L29.3386 49.3642C29.0499 49.6529 29.0492 50.1186 29.3342 50.4096L29.3304 50.4244L29.3446 50.4207C29.4889 50.5628 29.6764 50.635 29.8647 50.635C30.0551 50.635 30.2456 50.5621 30.3907 50.417L30.7776 50.0301L36.5646 48.452L48.0152 37.0007C48.8812 36.1347 48.8812 34.7255 48.0152 33.8595L45.8947 31.739ZM33.0208 43.5772L40.6419 35.9561L43.7988 39.113L36.1777 46.7341L33.0208 43.5772ZM32.349 45.0094L34.7447 47.4052L31.4502 48.304L32.349 45.0094ZM46.9624 35.9479L44.8501 38.0602L41.6932 34.9041L43.8055 32.7918C44.0919 32.5053 44.5569 32.5061 44.8426 32.791L46.9631 34.9115C47.2488 35.1972 47.2488 35.663 46.9624 35.9479Z" fill="black"/>
<path d="M23.0479 21.0964C23.0479 18.8115 21.1893 16.9529 18.9044 16.9529C16.6195 16.9529 14.7609 18.8115 14.7609 21.0964C14.7609 23.3806 16.6195 25.2392 18.9044 25.2392C21.1893 25.2392 23.0479 23.3806 23.0479 21.0964ZM16.249 21.0964C16.249 19.6322 17.4402 18.441 18.9044 18.441C20.3686 18.441 21.5598 19.6329 21.5598 21.0964C21.5598 22.5599 20.3686 23.7511 18.9044 23.7511C17.4402 23.7511 16.249 22.5599 16.249 21.0964Z" fill="black"/>
<path d="M11.6502 38.2767C11.7967 38.4441 12.0021 38.529 12.2082 38.529C12.3823 38.529 12.5579 38.4679 12.6992 38.3437L24.8365 27.658L31.0261 33.8468C31.317 34.1377 31.7872 34.1377 32.0781 33.8468C32.3691 33.5559 32.3691 33.0857 32.0781 32.7947L29.9763 30.6936L36.8146 23.205L42.9618 28.6691C43.2698 28.9429 43.7393 28.9147 44.0123 28.6074C44.2854 28.3008 44.2578 27.8299 43.9506 27.5575L37.2543 21.6053C36.9493 21.3338 36.4843 21.3576 36.2105 21.6597L28.9235 29.6408L25.3946 26.1119C25.1163 25.8344 24.6714 25.821 24.3767 26.0792L11.7164 37.2262C11.4084 37.4977 11.3779 37.968 11.6502 38.2767Z" fill="black"/>
<path d="M49.4095 11H7.74403C7.33332 11 7 11.3326 7 11.744V44.4812C7 44.8926 7.33332 45.2252 7.74403 45.2252H27.0887C27.4994 45.2252 27.8327 44.8926 27.8327 44.4812C27.8327 44.0697 27.4994 43.7371 27.0887 43.7371H8.48805V12.4881H48.6654V30.3447C48.6654 30.7561 48.9988 31.0887 49.4095 31.0887C49.8202 31.0887 50.1535 30.7561 50.1535 30.3447V11.744C50.1535 11.3333 49.8202 11 49.4095 11Z" fill="black"/>
</svg>
